<mxfile host="Electron" agent="Mozilla/5.0 (Windows NT 10.0; Win64; x64) AppleWebKit/537.36 (KHTML, like Gecko) draw.io/26.0.9 Chrome/128.0.6613.186 Electron/32.2.5 Safari/537.36" version="26.0.9">
  <diagram name="Page-1" id="fKvenzLY_-SyEQfirQdW">
    <mxGraphModel dx="1816" dy="577" grid="1" gridSize="10" guides="1" tooltips="1" connect="1" arrows="1" fold="1" page="1" pageScale="1" pageWidth="827" pageHeight="1169" math="0" shadow="0">
      <root>
        <mxCell id="0" />
        <mxCell id="1" parent="0" />
        <mxCell id="VDTV5huruKjgOes3YuKB-1" value="1" style="rounded=0;whiteSpace=wrap;html=1;" vertex="1" parent="1">
          <mxGeometry x="230" y="150" width="20" height="30" as="geometry" />
        </mxCell>
        <mxCell id="VDTV5huruKjgOes3YuKB-2" value="3" style="rounded=0;whiteSpace=wrap;html=1;" vertex="1" parent="1">
          <mxGeometry x="250" y="150" width="20" height="30" as="geometry" />
        </mxCell>
        <mxCell id="VDTV5huruKjgOes3YuKB-3" value="4" style="rounded=0;whiteSpace=wrap;html=1;" vertex="1" parent="1">
          <mxGeometry x="270" y="150" width="20" height="30" as="geometry" />
        </mxCell>
        <mxCell id="VDTV5huruKjgOes3YuKB-4" value="5" style="rounded=0;whiteSpace=wrap;html=1;" vertex="1" parent="1">
          <mxGeometry x="290" y="150" width="20" height="30" as="geometry" />
        </mxCell>
        <mxCell id="VDTV5huruKjgOes3YuKB-5" value="1" style="rounded=0;whiteSpace=wrap;html=1;" vertex="1" parent="1">
          <mxGeometry x="230" y="200" width="20" height="30" as="geometry" />
        </mxCell>
        <mxCell id="VDTV5huruKjgOes3YuKB-6" value="3" style="rounded=0;whiteSpace=wrap;html=1;" vertex="1" parent="1">
          <mxGeometry x="260" y="200" width="20" height="30" as="geometry" />
        </mxCell>
        <mxCell id="VDTV5huruKjgOes3YuKB-7" value="4" style="rounded=0;whiteSpace=wrap;html=1;" vertex="1" parent="1">
          <mxGeometry x="280" y="200" width="20" height="30" as="geometry" />
        </mxCell>
        <mxCell id="VDTV5huruKjgOes3YuKB-8" value="5" style="rounded=0;whiteSpace=wrap;html=1;" vertex="1" parent="1">
          <mxGeometry x="300" y="200" width="20" height="30" as="geometry" />
        </mxCell>
        <mxCell id="VDTV5huruKjgOes3YuKB-10" value="nOdd=2&lt;div&gt;nEven=1&lt;/div&gt;" style="text;html=1;align=center;verticalAlign=middle;whiteSpace=wrap;rounded=0;" vertex="1" parent="1">
          <mxGeometry x="310" y="200" width="60" height="30" as="geometry" />
        </mxCell>
        <mxCell id="VDTV5huruKjgOes3YuKB-11" value="&lt;div&gt;&lt;span style=&quot;background-color: transparent; color: light-dark(rgb(0, 0, 0), rgb(255, 255, 255));&quot;&gt;totalOdd +=&amp;nbsp; nEven +1 # 1 is odd&lt;/span&gt;&lt;br&gt;&lt;/div&gt;" style="text;html=1;align=center;verticalAlign=middle;whiteSpace=wrap;rounded=0;" vertex="1" parent="1">
          <mxGeometry x="-50" y="200" width="250" height="30" as="geometry" />
        </mxCell>
        <mxCell id="VDTV5huruKjgOes3YuKB-12" value="3" style="rounded=0;whiteSpace=wrap;html=1;" vertex="1" parent="1">
          <mxGeometry x="250" y="240" width="20" height="30" as="geometry" />
        </mxCell>
        <mxCell id="VDTV5huruKjgOes3YuKB-13" value="4" style="rounded=0;whiteSpace=wrap;html=1;" vertex="1" parent="1">
          <mxGeometry x="280" y="240" width="20" height="30" as="geometry" />
        </mxCell>
        <mxCell id="VDTV5huruKjgOes3YuKB-14" value="5" style="rounded=0;whiteSpace=wrap;html=1;" vertex="1" parent="1">
          <mxGeometry x="300" y="240" width="20" height="30" as="geometry" />
        </mxCell>
        <mxCell id="VDTV5huruKjgOes3YuKB-15" value="nOdd=1&lt;div&gt;nEven=1&lt;/div&gt;" style="text;html=1;align=center;verticalAlign=middle;whiteSpace=wrap;rounded=0;" vertex="1" parent="1">
          <mxGeometry x="310" y="240" width="60" height="30" as="geometry" />
        </mxCell>
        <mxCell id="VDTV5huruKjgOes3YuKB-16" value="totalOdd += nEven+1 # 3is odd" style="text;html=1;align=center;verticalAlign=middle;whiteSpace=wrap;rounded=0;" vertex="1" parent="1">
          <mxGeometry x="-50" y="240" width="250" height="30" as="geometry" />
        </mxCell>
        <mxCell id="VDTV5huruKjgOes3YuKB-17" value="4" style="rounded=0;whiteSpace=wrap;html=1;" vertex="1" parent="1">
          <mxGeometry x="270" y="280" width="20" height="30" as="geometry" />
        </mxCell>
        <mxCell id="VDTV5huruKjgOes3YuKB-18" value="5" style="rounded=0;whiteSpace=wrap;html=1;" vertex="1" parent="1">
          <mxGeometry x="300" y="280" width="20" height="30" as="geometry" />
        </mxCell>
        <mxCell id="VDTV5huruKjgOes3YuKB-19" value="nOdd=1&lt;div&gt;nEven =0&lt;/div&gt;" style="text;html=1;align=center;verticalAlign=middle;whiteSpace=wrap;rounded=0;" vertex="1" parent="1">
          <mxGeometry x="320" y="280" width="60" height="30" as="geometry" />
        </mxCell>
        <mxCell id="VDTV5huruKjgOes3YuKB-20" value="totalOdd += nOdd # 4 is even" style="text;html=1;align=center;verticalAlign=middle;whiteSpace=wrap;rounded=0;" vertex="1" parent="1">
          <mxGeometry x="-50" y="290" width="250" height="30" as="geometry" />
        </mxCell>
        <mxCell id="VDTV5huruKjgOes3YuKB-21" value="5" style="rounded=0;whiteSpace=wrap;html=1;" vertex="1" parent="1">
          <mxGeometry x="290" y="330" width="20" height="30" as="geometry" />
        </mxCell>
        <mxCell id="VDTV5huruKjgOes3YuKB-22" value="nOdd= 0&lt;div&gt;nEven=0&lt;/div&gt;" style="text;html=1;align=center;verticalAlign=middle;whiteSpace=wrap;rounded=0;" vertex="1" parent="1">
          <mxGeometry x="320" y="330" width="60" height="30" as="geometry" />
        </mxCell>
        <mxCell id="VDTV5huruKjgOes3YuKB-23" value="totalOdd += 1 # 5 is odd" style="text;html=1;align=center;verticalAlign=middle;whiteSpace=wrap;rounded=0;" vertex="1" parent="1">
          <mxGeometry x="-50" y="340" width="250" height="30" as="geometry" />
        </mxCell>
        <mxCell id="VDTV5huruKjgOes3YuKB-25" value="" style="endArrow=classic;html=1;rounded=1;entryX=0.897;entryY=0.933;entryDx=0;entryDy=0;entryPerimeter=0;curved=0;" edge="1" parent="1">
          <mxGeometry width="50" height="50" relative="1" as="geometry">
            <mxPoint x="380" y="340" as="sourcePoint" />
            <mxPoint x="383.82000000000016" y="307.99" as="targetPoint" />
            <Array as="points">
              <mxPoint x="400" y="330" />
            </Array>
          </mxGeometry>
        </mxCell>
        <mxCell id="VDTV5huruKjgOes3YuKB-26" value="" style="endArrow=classic;html=1;rounded=1;entryX=1;entryY=0.25;entryDx=0;entryDy=0;curved=0;exitX=1;exitY=0.75;exitDx=0;exitDy=0;" edge="1" parent="1" source="VDTV5huruKjgOes3YuKB-22" target="VDTV5huruKjgOes3YuKB-19">
          <mxGeometry width="50" height="50" relative="1" as="geometry">
            <mxPoint x="390" y="350" as="sourcePoint" />
            <mxPoint x="393.82000000000016" y="317.99" as="targetPoint" />
            <Array as="points">
              <mxPoint x="410" y="330" />
            </Array>
          </mxGeometry>
        </mxCell>
        <mxCell id="VDTV5huruKjgOes3YuKB-27" value="+1" style="text;html=1;align=center;verticalAlign=middle;whiteSpace=wrap;rounded=0;" vertex="1" parent="1">
          <mxGeometry x="400" y="320" width="36" height="20" as="geometry" />
        </mxCell>
        <mxCell id="VDTV5huruKjgOes3YuKB-28" value="" style="endArrow=classic;html=1;rounded=1;entryX=1;entryY=0.25;entryDx=0;entryDy=0;curved=0;" edge="1" parent="1" target="VDTV5huruKjgOes3YuKB-15">
          <mxGeometry width="50" height="50" relative="1" as="geometry">
            <mxPoint x="380" y="290" as="sourcePoint" />
            <mxPoint x="390" y="298" as="targetPoint" />
            <Array as="points">
              <mxPoint x="400" y="270" />
            </Array>
          </mxGeometry>
        </mxCell>
        <mxCell id="VDTV5huruKjgOes3YuKB-29" value="" style="endArrow=classic;html=1;rounded=1;entryX=1.01;entryY=0.893;entryDx=0;entryDy=0;curved=0;exitX=1;exitY=0.75;exitDx=0;exitDy=0;entryPerimeter=0;" edge="1" parent="1" source="VDTV5huruKjgOes3YuKB-19" target="VDTV5huruKjgOes3YuKB-15">
          <mxGeometry width="50" height="50" relative="1" as="geometry">
            <mxPoint x="390" y="300" as="sourcePoint" />
            <mxPoint x="380" y="258" as="targetPoint" />
            <Array as="points">
              <mxPoint x="410" y="280" />
            </Array>
          </mxGeometry>
        </mxCell>
        <mxCell id="VDTV5huruKjgOes3YuKB-30" value="+1" style="text;html=1;align=center;verticalAlign=middle;whiteSpace=wrap;rounded=0;" vertex="1" parent="1">
          <mxGeometry x="400" y="270" width="36" height="20" as="geometry" />
        </mxCell>
        <mxCell id="VDTV5huruKjgOes3YuKB-31" value="" style="endArrow=classic;html=1;rounded=1;curved=0;exitX=1;exitY=0.25;exitDx=0;exitDy=0;" edge="1" parent="1" source="VDTV5huruKjgOes3YuKB-15" target="VDTV5huruKjgOes3YuKB-10">
          <mxGeometry width="50" height="50" relative="1" as="geometry">
            <mxPoint x="370" y="252" as="sourcePoint" />
            <mxPoint x="360" y="210" as="targetPoint" />
            <Array as="points">
              <mxPoint x="390" y="232" />
            </Array>
          </mxGeometry>
        </mxCell>
        <mxCell id="VDTV5huruKjgOes3YuKB-32" value="" style="endArrow=classic;html=1;rounded=1;curved=0;exitX=1;exitY=0.75;exitDx=0;exitDy=0;entryX=1;entryY=0.25;entryDx=0;entryDy=0;" edge="1" parent="1" source="VDTV5huruKjgOes3YuKB-15" target="VDTV5huruKjgOes3YuKB-10">
          <mxGeometry width="50" height="50" relative="1" as="geometry">
            <mxPoint x="380" y="258" as="sourcePoint" />
            <mxPoint x="380" y="235" as="targetPoint" />
            <Array as="points">
              <mxPoint x="400" y="242" />
            </Array>
          </mxGeometry>
        </mxCell>
        <mxCell id="VDTV5huruKjgOes3YuKB-33" value="+1" style="text;html=1;align=center;verticalAlign=middle;whiteSpace=wrap;rounded=0;" vertex="1" parent="1">
          <mxGeometry x="396" y="230" width="36" height="20" as="geometry" />
        </mxCell>
        <mxCell id="VDTV5huruKjgOes3YuKB-34" value="1" style="rounded=0;whiteSpace=wrap;html=1;" vertex="1" parent="1">
          <mxGeometry x="200" y="500" width="20" height="50" as="geometry" />
        </mxCell>
        <mxCell id="VDTV5huruKjgOes3YuKB-37" value="imin= 0&#xa;imax= 0&#xa;maxabsSum = 0 " style="text;whiteSpace=wrap;" vertex="1" parent="1">
          <mxGeometry x="250" y="440" width="310" height="50" as="geometry" />
        </mxCell>
        <mxCell id="VDTV5huruKjgOes3YuKB-38" value="imin= 1= 1+0 (because previous not imin&lt;0)&#xa;imax=1 = 1+0 (because previous not imax &gt; 0)&#xa;maxabsSum = 1" style="text;whiteSpace=wrap;" vertex="1" parent="1">
          <mxGeometry x="270" y="500" width="310" height="50" as="geometry" />
        </mxCell>
        <mxCell id="VDTV5huruKjgOes3YuKB-39" value="1" style="rounded=0;whiteSpace=wrap;html=1;" vertex="1" parent="1">
          <mxGeometry x="200" y="570" width="20" height="50" as="geometry" />
        </mxCell>
        <mxCell id="VDTV5huruKjgOes3YuKB-40" value="-3" style="rounded=0;whiteSpace=wrap;html=1;" vertex="1" parent="1">
          <mxGeometry x="220" y="570" width="20" height="50" as="geometry" />
        </mxCell>
        <mxCell id="VDTV5huruKjgOes3YuKB-41" value="imin= -3= -3+0 (because previous not imin&lt;0)&#xa;imax=-2 = -3+1 (because previous imax &gt; 0)&#xa;maxabsSum = 3" style="text;whiteSpace=wrap;" vertex="1" parent="1">
          <mxGeometry x="280" y="575" width="310" height="55" as="geometry" />
        </mxCell>
        <mxCell id="VDTV5huruKjgOes3YuKB-42" value="1" style="rounded=0;whiteSpace=wrap;html=1;" vertex="1" parent="1">
          <mxGeometry x="200" y="630" width="20" height="50" as="geometry" />
        </mxCell>
        <mxCell id="VDTV5huruKjgOes3YuKB-43" value="-3" style="rounded=0;whiteSpace=wrap;html=1;" vertex="1" parent="1">
          <mxGeometry x="220" y="630" width="20" height="50" as="geometry" />
        </mxCell>
        <mxCell id="VDTV5huruKjgOes3YuKB-44" value="imin= -1= 2-3 (because previous imin&lt;0)&#xa;imax=2 = 2+0 (because previous not imax &gt;0)&#xa;maxabsSum = 3" style="text;whiteSpace=wrap;" vertex="1" parent="1">
          <mxGeometry x="290" y="635" width="310" height="55" as="geometry" />
        </mxCell>
        <mxCell id="VDTV5huruKjgOes3YuKB-45" value="2" style="rounded=0;whiteSpace=wrap;html=1;" vertex="1" parent="1">
          <mxGeometry x="240" y="630" width="20" height="50" as="geometry" />
        </mxCell>
        <mxCell id="VDTV5huruKjgOes3YuKB-46" value="1" style="rounded=0;whiteSpace=wrap;html=1;" vertex="1" parent="1">
          <mxGeometry x="200" y="700" width="20" height="50" as="geometry" />
        </mxCell>
        <mxCell id="VDTV5huruKjgOes3YuKB-47" value="-3" style="rounded=0;whiteSpace=wrap;html=1;" vertex="1" parent="1">
          <mxGeometry x="220" y="700" width="20" height="50" as="geometry" />
        </mxCell>
        <mxCell id="VDTV5huruKjgOes3YuKB-48" value="imin= 1= 3 -1 (because previous imin&lt;0)&#xa;imax=5 = 3+2 (because previous imax &gt;0)&#xa;maxabsSum = 5" style="text;whiteSpace=wrap;" vertex="1" parent="1">
          <mxGeometry x="290" y="700" width="310" height="65" as="geometry" />
        </mxCell>
        <mxCell id="VDTV5huruKjgOes3YuKB-49" value="2" style="rounded=0;whiteSpace=wrap;html=1;" vertex="1" parent="1">
          <mxGeometry x="240" y="700" width="20" height="50" as="geometry" />
        </mxCell>
        <mxCell id="VDTV5huruKjgOes3YuKB-50" value="3" style="rounded=0;whiteSpace=wrap;html=1;" vertex="1" parent="1">
          <mxGeometry x="260" y="700" width="20" height="50" as="geometry" />
        </mxCell>
        <mxCell id="VDTV5huruKjgOes3YuKB-51" value="1" style="rounded=0;whiteSpace=wrap;html=1;" vertex="1" parent="1">
          <mxGeometry x="200" y="780" width="20" height="50" as="geometry" />
        </mxCell>
        <mxCell id="VDTV5huruKjgOes3YuKB-52" value="-3" style="rounded=0;whiteSpace=wrap;html=1;" vertex="1" parent="1">
          <mxGeometry x="220" y="780" width="20" height="50" as="geometry" />
        </mxCell>
        <mxCell id="VDTV5huruKjgOes3YuKB-53" value="min= -1 = -4+0 (because previous not imin&lt;0)&#xa;imax=1 = -4+5 (because previous imax &gt;0)&#xa;maxabsSum = 5" style="text;whiteSpace=wrap;" vertex="1" parent="1">
          <mxGeometry x="310" y="785" width="310" height="55" as="geometry" />
        </mxCell>
        <mxCell id="VDTV5huruKjgOes3YuKB-54" value="2" style="rounded=0;whiteSpace=wrap;html=1;" vertex="1" parent="1">
          <mxGeometry x="240" y="780" width="20" height="50" as="geometry" />
        </mxCell>
        <mxCell id="VDTV5huruKjgOes3YuKB-55" value="3" style="rounded=0;whiteSpace=wrap;html=1;" vertex="1" parent="1">
          <mxGeometry x="260" y="780" width="20" height="50" as="geometry" />
        </mxCell>
        <mxCell id="VDTV5huruKjgOes3YuKB-56" value="-4" style="rounded=0;whiteSpace=wrap;html=1;" vertex="1" parent="1">
          <mxGeometry x="280" y="780" width="20" height="50" as="geometry" />
        </mxCell>
      </root>
    </mxGraphModel>
  </diagram>
</mxfile>
